Coordinates
version=1
nRows=29
nColumns=24
inDegrees=yes

Units are S.I. units (second, meters, Newtons, ...)
Angles are in degrees.

endheader
time	pelvis_tilt	pelvis_list	pelvis_rotation	pelvis_tx	pelvis_ty	pelvis_tz	hip_flexion_r	hip_adduction_r	hip_rotation_r	knee_angle_r	ankle_angle_r	subtalar_angle_r	mtp_angle_r	hip_flexion_l	hip_adduction_l	hip_rotation_l	knee_angle_l	ankle_angle_l	subtalar_angle_l	mtp_angle_l	lumbar_extension	lumbar_bending	lumbar_rotation
      0.77083333	     -5.87022643	      1.95101764	      2.97645469	     -0.35350459	      1.06525352	      0.30935061	     15.83154973	      0.82776006	      0.45729257	    -18.79864500	      7.05964452	     -8.24688876	      8.68847497	     21.15278899	     -2.06543802	     -4.87364593	    -68.36508275	      9.25405982	      2.51870444	      5.16903331	     -8.17209707	      2.63667948	      0.08680099
      0.77500000	     -5.82905839	      2.02822377	      2.87292628	     -0.34825155	      1.06603239	      0.30973323	     15.32468841	      0.78832953	      0.50881496	    -18.47141915	      7.16225428	     -8.13987306	      8.67512031	     21.58536254	     -2.01320643	     -5.04870918	    -67.90305960	      9.54562129	      2.76031918	      5.17472470	     -8.18191006	      2.49058633	      0.24227472
      0.77916667	     -5.79991230	      2.10109562	      2.76445908	     -0.34300385	      1.06674100	      0.31011182	     14.83274285	      0.75262084	      0.56529324	    -18.14610770	      7.26274451	     -8.03855136	      8.66269637	     22.02289950	     -1.96674087	     -5.22919960	    -67.40356280	      9.82241139	      2.99829080	      5.18187475	     -8.17544989	      2.34879629	      0.39925003
      0.78333333	     -5.76238871	      2.16509642	      2.64884132	     -0.33776996	      1.06741537	      0.31049437	     14.33189986	      0.72725272	      0.62782884	    -17.81566843	      7.36178846	     -7.94551654	      8.65036912	     22.44265073	     -1.93584445	     -5.41800762	    -66.86638673	     10.09027942	      3.25568946	      5.19083105	     -8.17962159	      2.22009489	      0.56577761
      0.78750000	     -5.72212254	      2.23001517	      2.52939734	     -0.33254666	      1.06806928	      0.31086885	     13.82667773	      0.69984497	      0.69849008	    -17.47756863	      7.45181108	     -7.86130607	      8.63886924	     22.84834331	     -1.90471934	     -5.61237846	    -66.28579454	     10.33346293	      3.50898345	      5.20092184	     -8.19011439	      2.08590635	      0.72571796
      0.79166667	     -5.67426265	      2.29703986	      2.40653324	     -0.32731408	      1.06870393	      0.31124098	     13.31421479	      0.66876693	      0.76522411	    -17.14401352	      7.55820474	     -7.79257969	      8.62150955	     23.22967314	     -1.87276223	     -5.80868365	    -65.65542819	     10.56412908	      3.78865470	      5.21441513	     -8.19827922	      1.96517909	      0.95134310
      0.79583333	     -5.64132308	      2.37472328	      2.27698987	     -0.32209317	      1.06927547	      0.31161962	     12.82147129	      0.62613004	      0.84784766	    -16.81599650	      7.65404033	     -7.71461427	      8.60597614	     23.61588255	     -1.82947597	     -6.01310372	    -64.98512482	     10.76776263	      4.03614947	      5.22847883	     -8.19928999	      1.81860168	      1.12704448
      0.80000000	     -5.60500240	      2.43415127	      2.15274543	     -0.31688048	      1.06980220	      0.31197807	     12.32033100	      0.59979231	      0.92798919	    -16.47435939	      7.75219542	     -7.63962580	      8.58890263	     23.99283401	     -1.80484805	     -6.20566350	    -64.28687078	     10.96159441	      4.29404847	      5.24552628	     -8.20712415	      1.68639559	      1.31736077
      0.80416667	     -5.58291506	      2.49577027	      2.02135430	     -0.31167916	      1.07025298	      0.31233645	     11.84274387	      0.56968182	      1.01212780	    -16.14806347	      7.84751336	     -7.56599303	      8.57237274	     24.37369277	     -1.77936115	     -6.40505863	    -63.55037234	     11.13510835	      4.54938896	      5.26390908	     -8.19637558	      1.56066636	      1.49130306
      0.80833333	     -5.56141327	      2.56915466	      1.88417609	     -0.30647815	      1.07068225	      0.31268155	     11.36935929	      0.52368813	      1.09774193	    -15.82759586	      7.92962137	     -7.48904183	      8.56428702	     24.73698761	     -1.73963617	     -6.60950292	    -62.76337173	     11.27515406	      4.78237535	      5.27711385	     -8.18122304	      1.43402799	      1.59911252
      0.81250000	     -5.51465246	      2.62398775	      1.75682289	     -0.30130165	      1.07109559	      0.31301537	     10.86246603	      0.49645304	      1.18091259	    -15.49227065	      8.04379426	     -7.41881813	      8.54967237	     25.07088212	     -1.71795833	     -6.79470503	    -61.95582141	     11.41736869	      5.02943426	      5.29861774	     -8.21107480	      1.30646628	      1.82310966
      0.81666667	     -5.48438849	      2.68130193	      1.62563465	     -0.29612387	      1.07144271	      0.31333202	     10.37935755	      0.46310627	      1.26365224	    -15.16830787	      8.14604747	     -7.34972501	      8.53741971	     25.40753976	     -1.69091149	     -6.97978091	    -61.10676217	     11.52900357	      5.25128932	      5.31816658	     -8.21236990	      1.18907316	      1.97886499
      0.82083333	     -5.46154696	      2.74060777	      1.49586924	     -0.29095168	      1.07174110	      0.31363524	      9.90647326	      0.42421162	      1.34794408	    -14.84850754	      8.24481431	     -7.27177101	      8.52401834	     25.73959089	     -1.65615350	     -7.15364981	    -60.21946685	     11.61714444	      5.44898887	      5.34011883	     -8.21201740	      1.07001855	      2.14704642
      0.82500000	     -5.44344772	      2.79702574	      1.36616610	     -0.28579110	      1.07197949	      0.31392137	      9.44478103	      0.38520642	      1.42282791	    -14.53988086	      8.34124885	     -7.19866540	      8.51750584	     26.06579687	     -1.62308201	     -7.32489861	    -59.29935694	     11.68019051	      5.62696015	      5.35333658	     -8.19816589	      0.96491946	      2.24441600
      0.82916667	     -5.40801434	      2.84019452	      1.24547301	     -0.28063964	      1.07220295	      0.31418356	      8.95906126	      0.35755114	      1.49554838	    -14.22054864	      8.46172820	     -7.12060019	      8.50503333	     26.36465697	     -1.59661876	     -7.47140497	    -58.35161583	     11.73866499	      5.77877733	      5.37561398	     -8.21786865	      0.85943760	      2.43959176
      0.83333333	     -5.40032959	      2.89913013	      1.12101716	     -0.27549088	      1.07234088	      0.31444051	      8.51495147	      0.30971650	      1.56522342	    -13.92490269	      8.56278638	     -7.04229258	      8.50014361	     26.67584927	     -1.55020133	     -7.61823835	    -57.35979805	     11.75745010	      5.89784996	      5.38608898	     -8.19456743	      0.75496350	      2.51805076
      0.83750000	     -5.36264558	      2.93979022	      1.00165319	     -0.27035505	      1.07248923	      0.31466915	      8.03453178	      0.27876015	      1.63145959	    -13.61955741	      8.67812830	     -6.96272731	      8.49358489	     26.94505017	     -1.51791891	     -7.74736589	    -56.34048329	     11.76876993	      5.98967097	      5.39878933	     -8.21879260	      0.66469786	      2.64876136
      0.84166667	     -5.36376832	      2.97326049	      0.88785725	     -0.26522234	      1.07250776	      0.31488391	      7.60090880	      0.25275239	      1.69352438	    -13.32484202	      8.79381207	     -6.88076092	      8.48833336	     27.24807162	     -1.48715543	     -7.85788823	    -55.29911258	     11.76189365	      6.04397539	      5.40883240	     -8.19717439	      0.58348829	      2.75980451
      0.84583333	     -5.33489366	      3.00220517	      0.77645264	     -0.26010520	      1.07254953	      0.31508210	      7.13557378	      0.22883772	      1.74969277	    -13.02985424	      8.91242043	     -6.79692815	      8.48226770	     27.50374913	     -1.45633976	     -7.95530478	    -54.21984218	     11.73463965	      6.05922443	      5.41923448	     -8.21235882	      0.51106605	      2.88047899
      0.85000000	     -5.32141527	      3.01950221	      0.67194238	     -0.25499195	      1.07250650	      0.31525412	      6.68829213	      0.21449963	      1.79971604	    -12.73849835	      9.03236571	     -6.71226306	      8.47617670	     27.76765485	     -1.43058167	     -8.03210220	    -53.11960631	     11.69497875	      6.03780483	      5.42875674	     -8.21426550	      0.45334704	      2.98837699
      0.85416667	     -5.31985969	      3.03014932	      0.57021039	     -0.24988215	      1.07239096	      0.31540814	      6.25868628	      0.20480532	      1.84658090	    -12.45785928	      9.16133228	     -6.62581816	      8.46888346	     28.03276067	     -1.40652926	     -8.09381000	    -51.99321893	     11.63752083	      5.97064075	      5.43908651	     -8.20207069	      0.40538759	      3.09640509
      0.85833333	     -5.32089868	      3.03811232	      0.47111814	     -0.24477633	      1.07223591	      0.31555301	      5.83370150	      0.19647375	      1.89054540	    -12.18137998	      9.28562253	     -6.53568920	      8.46202536	     28.28568119	     -1.37957267	     -8.13923340	    -50.83372415	     11.56462759	      5.87195059	      5.44708407	     -8.19065920	      0.36126216	      3.18256891
      0.86250000	     -5.31152928	      3.03500453	      0.37737014	     -0.23968115	      1.07205116	      0.31567287	      5.39776578	      0.19700499	      1.92698857	    -11.90463437	      9.41515242	     -6.44351893	      8.45417255	     28.51658313	     -1.35796442	     -8.16608364	    -49.65037866	     11.47772288	      5.72630013	      5.45530172	     -8.19617679	      0.33299685	      3.26922799
      0.86666667	     -5.33199421	      3.02340040	      0.28929194	     -0.23458157	      1.07176143	      0.31577331	      4.99398666	      0.20521239	      1.96496925	    -11.62858360	      9.54499690	     -6.35018149	      8.44693547	     28.77081446	     -1.34113164	     -8.17997608	    -48.44911206	     11.38430952	      5.56051516	      5.46157263	     -8.17335149	      0.31792561	      3.33994281
      0.87083333	     -5.32572585	      3.01035866	      0.20055367	     -0.22950055	      1.07148389	      0.31586840	      4.56917997	      0.21354404	      1.99430370	    -11.36967580	      9.67840294	     -6.25638922	      8.43802848	     28.97740443	     -1.31851687	     -8.16996906	    -47.20888071	     11.27100417	      5.33650201	      5.46802361	     -8.17927987	      0.30409990	      3.40750150
      0.87500000	     -5.32806224	      2.98200607	      0.11912215	     -0.22441849	      1.07114674	      0.31593780	      4.15237665	      0.23656188	      2.02129297	    -11.11030238	      9.81431710	     -6.15801242	      8.42738259	     29.18377957	     -1.30499484	     -8.13723883	    -45.95000310	     11.15263716	      5.08836594	      5.47524380	     -8.17530309	      0.30818901	      3.47009228
      0.87916667	     -5.34146726	      2.94166230	      0.04149257	     -0.21933439	      1.07074529	      0.31598508	      3.74870391	      0.27097536	      2.04720831	    -10.85504856	      9.94836936	     -6.06430910	      8.41512538	     29.38967323	     -1.29883879	     -8.08497831	    -44.67008561	     11.03161955	      4.82270174	      5.48287375	     -8.15840828	      0.33127928	      3.52506585
      0.88333333	     -5.36654316	      2.89846009	     -0.03241086	     -0.21425429	      1.07026846	      0.31602424	      3.35822448	      0.30785500	      2.07518054	    -10.60084452	     10.08172674	     -5.97521842	      8.40226058	     29.59686804	     -1.29311049	     -8.02188010	    -43.37034924	     10.90864132	      4.54327225	      5.48918350	     -8.14164604	      0.36029285	      3.56940677
      0.88750000	     -5.39689601	      2.83976054	     -0.10247761	     -0.20917590	      1.06974054	      0.31604184	      2.97615291	      0.36077581	      2.10331522	    -10.35628099	     10.21661478	     -5.88809140	      8.38763364	     29.79783258	     -1.29655018	     -7.93101076	    -42.04947276	     10.78012726	      4.23970148	      5.49555980	     -8.11083729	      0.40352482	      3.61052182
